<mxfile host="Electron" agent="Mozilla/5.0 (Windows NT 10.0; Win64; x64) AppleWebKit/537.36 (KHTML, like Gecko) draw.io/28.1.2 Chrome/138.0.7204.243 Electron/37.4.0 Safari/537.36" version="28.1.2">
  <diagram name="หน้า-1" id="D2F5-nMr_3Bc0n1jGYxq">
    <mxGraphModel dx="4995" dy="2504" grid="1" gridSize="10" guides="1" tooltips="1" connect="1" arrows="1" fold="1" page="1" pageScale="1" pageWidth="827" pageHeight="1169" math="0" shadow="0">
      <root>
        <mxCell id="0" />
        <mxCell id="1" parent="0" />
        <mxCell id="LEI7NK5Pn0Rt52Mgo6JD-56" value="เริ่มต้น" style="ellipse;whiteSpace=wrap;html=1;shape=ext;fillColor=#60a917;fontColor=#ffffff;strokeColor=#2D7600;" vertex="1" parent="1">
          <mxGeometry x="279" y="80" width="150" height="40" as="geometry" />
        </mxCell>
        <mxCell id="LEI7NK5Pn0Rt52Mgo6JD-57" value="กำหนดตัวแปร: command, score, guess, answer, lower, upper&lt;br&gt;กำหนดค่าเริ่มต้นตัวสร้างเลขสุ่ม (srand)" style="rounded=0;whiteSpace=wrap;html=1;fillColor=#1ba1e2;fontColor=#ffffff;strokeColor=#006EAF;" vertex="1" parent="1">
          <mxGeometry x="229" y="180" width="250" height="60" as="geometry" />
        </mxCell>
        <mxCell id="LEI7NK5Pn0Rt52Mgo6JD-58" value="แสดง: &quot;ต้องการเล่นเกมหรือไม่ (1=เล่น, -1=ออก)&quot;" style="shape=parallelogram;perimeter=parallelogramPerimeter;whiteSpace=wrap;html=1;fillColor=#0050ef;fontColor=#ffffff;strokeColor=#001DBC;" vertex="1" parent="1">
          <mxGeometry x="229" y="330" width="250" height="50" as="geometry" />
        </mxCell>
        <mxCell id="LEI7NK5Pn0Rt52Mgo6JD-59" value="รับค่า &lt;b&gt;command&lt;/b&gt;&lt;br&gt;เป็นตัวเลขสำเร็จหรือไม่?" style="rhombus;whiteSpace=wrap;html=1;fillColor=#d80073;fontColor=#ffffff;strokeColor=#A50040;" vertex="1" parent="1">
          <mxGeometry x="279" y="530" width="150" height="90" as="geometry" />
        </mxCell>
        <mxCell id="LEI7NK5Pn0Rt52Mgo6JD-60" value="แสดง: &quot;กรุณาป้อน 1 หรือ -1 เท่านั้น&quot;" style="shape=parallelogram;perimeter=parallelogramPerimeter;whiteSpace=wrap;html=1;fillColor=#0050ef;fontColor=#ffffff;strokeColor=#001DBC;" vertex="1" parent="1">
          <mxGeometry x="-101" y="545" width="200" height="60" as="geometry" />
        </mxCell>
        <mxCell id="LEI7NK5Pn0Rt52Mgo6JD-61" value="ล้างบัฟเฟอร์อินพุต (getchar)" style="rounded=0;whiteSpace=wrap;html=1;fillColor=#1ba1e2;fontColor=#ffffff;strokeColor=#006EAF;" vertex="1" parent="1">
          <mxGeometry x="-101" y="650" width="200" height="40" as="geometry" />
        </mxCell>
        <mxCell id="LEI7NK5Pn0Rt52Mgo6JD-62" value="&lt;b&gt;command&lt;/b&gt; $ = -1 $ หรือไม่?" style="rhombus;whiteSpace=wrap;html=1;fillColor=#d80073;fontColor=#ffffff;strokeColor=#A50040;" vertex="1" parent="1">
          <mxGeometry x="169" y="750" width="150" height="80" as="geometry" />
        </mxCell>
        <mxCell id="LEI7NK5Pn0Rt52Mgo6JD-63" value="แสดง: &quot;ไว้พบกันใหม่&quot;" style="shape=parallelogram;perimeter=parallelogramPerimeter;whiteSpace=wrap;html=1;fillColor=#0050ef;fontColor=#ffffff;strokeColor=#001DBC;" vertex="1" parent="1">
          <mxGeometry x="729" y="945" width="150" height="50" as="geometry" />
        </mxCell>
        <mxCell id="LEI7NK5Pn0Rt52Mgo6JD-64" value="&lt;b&gt;command&lt;/b&gt; $ = 1 $ หรือไม่?" style="rhombus;whiteSpace=wrap;html=1;fillColor=#d80073;fontColor=#ffffff;strokeColor=#A50040;" vertex="1" parent="1">
          <mxGeometry x="28" y="930" width="150" height="80" as="geometry" />
        </mxCell>
        <mxCell id="LEI7NK5Pn0Rt52Mgo6JD-65" value="แสดง: &quot;กรุณาป้อน 1 หรือ -1 เท่านั้น&quot;" style="shape=parallelogram;perimeter=parallelogramPerimeter;whiteSpace=wrap;html=1;fillColor=#0050ef;fontColor=#ffffff;strokeColor=#001DBC;" vertex="1" parent="1">
          <mxGeometry x="279" y="1050" width="180" height="40" as="geometry" />
        </mxCell>
        <mxCell id="LEI7NK5Pn0Rt52Mgo6JD-66" value="ตั้งค่าเกม:&lt;br&gt;$ score \leftarrow 100 $&lt;br&gt;$ answer \leftarrow \text{rand}(1-100) $&lt;br&gt;$ lower \leftarrow 1 $, $ upper \leftarrow 100 $" style="rounded=0;whiteSpace=wrap;html=1;fillColor=#1ba1e2;fontColor=#ffffff;strokeColor=#006EAF;" vertex="1" parent="1">
          <mxGeometry x="3" y="1130" width="200" height="80" as="geometry" />
        </mxCell>
        <mxCell id="LEI7NK5Pn0Rt52Mgo6JD-67" value="แสดงคะแนนเริ่มต้น ($ score $)" style="shape=parallelogram;perimeter=parallelogramPerimeter;whiteSpace=wrap;html=1;fillColor=#0050ef;fontColor=#ffffff;strokeColor=#001DBC;" vertex="1" parent="1">
          <mxGeometry x="3" y="1280" width="200" height="40" as="geometry" />
        </mxCell>
        <mxCell id="LEI7NK5Pn0Rt52Mgo6JD-68" value="แสดง: &quot;ทายเลขนำโชค ($ lower $-$ upper $):&quot;" style="shape=parallelogram;perimeter=parallelogramPerimeter;whiteSpace=wrap;html=1;fillColor=#0050ef;fontColor=#ffffff;strokeColor=#001DBC;" vertex="1" parent="1">
          <mxGeometry x="3" y="1430" width="200" height="50" as="geometry" />
        </mxCell>
        <mxCell id="LEI7NK5Pn0Rt52Mgo6JD-69" value="รับค่า &lt;b&gt;guess&lt;/b&gt;&lt;br&gt;เป็นตัวเลขสำเร็จหรือไม่?" style="rhombus;whiteSpace=wrap;html=1;fillColor=#d80073;fontColor=#ffffff;strokeColor=#A50040;" vertex="1" parent="1">
          <mxGeometry x="28" y="1600" width="150" height="80" as="geometry" />
        </mxCell>
        <mxCell id="LEI7NK5Pn0Rt52Mgo6JD-70" value="แสดง: &quot;ป้อนไม่ถูกต้อง กรุณาป้อนตัวเลข&quot;" style="shape=parallelogram;perimeter=parallelogramPerimeter;whiteSpace=wrap;html=1;fillColor=#0050ef;fontColor=#ffffff;strokeColor=#001DBC;" vertex="1" parent="1">
          <mxGeometry x="279" y="1730" width="250" height="50" as="geometry" />
        </mxCell>
        <mxCell id="LEI7NK5Pn0Rt52Mgo6JD-71" value="ล้างบัฟเฟอร์อินพุต (getchar)" style="rounded=0;whiteSpace=wrap;html=1;fillColor=#1ba1e2;fontColor=#ffffff;strokeColor=#006EAF;" vertex="1" parent="1">
          <mxGeometry x="279" y="1830" width="250" height="40" as="geometry" />
        </mxCell>
        <mxCell id="LEI7NK5Pn0Rt52Mgo6JD-72" value="&lt;b&gt;guess&lt;/b&gt; $ = answer $ หรือไม่?" style="rhombus;whiteSpace=wrap;html=1;fillColor=#d80073;fontColor=#ffffff;strokeColor=#A50040;" vertex="1" parent="1">
          <mxGeometry x="28" y="2040" width="150" height="80" as="geometry" />
        </mxCell>
        <mxCell id="LEI7NK5Pn0Rt52Mgo6JD-73" value="แสดง: &quot;ถูกต้อง! เลขคือ $ answer $&quot;&lt;br&gt;แสดงคะแนน ($ score $) ของเกมนี้" style="shape=parallelogram;perimeter=parallelogramPerimeter;whiteSpace=wrap;html=1;fillColor=#0050ef;fontColor=#ffffff;strokeColor=#001DBC;" vertex="1" parent="1">
          <mxGeometry x="279" y="2180" width="200" height="60" as="geometry" />
        </mxCell>
        <mxCell id="LEI7NK5Pn0Rt52Mgo6JD-74" value="&lt;b&gt;guess&lt;/b&gt; $ &lt; answer $ หรือไม่?" style="rhombus;whiteSpace=wrap;html=1;fillColor=#d80073;fontColor=#ffffff;strokeColor=#A50040;" vertex="1" parent="1">
          <mxGeometry x="28" y="2330" width="150" height="80" as="geometry" />
        </mxCell>
        <mxCell id="LEI7NK5Pn0Rt52Mgo6JD-75" value="$ score \leftarrow score - 10 $&lt;br&gt;$ lower \leftarrow guess + 1 $&lt;br&gt;แสดง: &quot;เลขสูงกว่า&quot;" style="rounded=0;whiteSpace=wrap;html=1;fillColor=#1ba1e2;fontColor=#ffffff;strokeColor=#006EAF;" vertex="1" parent="1">
          <mxGeometry x="-97" y="2540" width="200" height="80" as="geometry" />
        </mxCell>
        <mxCell id="LEI7NK5Pn0Rt52Mgo6JD-76" value="$ score \leftarrow score - 10 $&lt;br&gt;$ upper \leftarrow guess - 1 $&lt;br&gt;แสดง: &quot;เลขต่ำกว่า&quot;" style="rounded=0;whiteSpace=wrap;html=1;fillColor=#1ba1e2;fontColor=#ffffff;strokeColor=#006EAF;" vertex="1" parent="1">
          <mxGeometry x="103" y="2540" width="200" height="80" as="geometry" />
        </mxCell>
        <mxCell id="LEI7NK5Pn0Rt52Mgo6JD-77" value="&lt;b&gt;score&lt;/b&gt; $ \leq 0 $ หรือไม่?" style="rhombus;whiteSpace=wrap;html=1;fillColor=#d80073;fontColor=#ffffff;strokeColor=#A50040;" vertex="1" parent="1">
          <mxGeometry x="28" y="2790" width="150" height="80" as="geometry" />
        </mxCell>
        <mxCell id="LEI7NK5Pn0Rt52Mgo6JD-78" value="แสดงคะแนน $ 0 $ และ &quot;คุณหมดแต้ม!&quot;" style="shape=parallelogram;perimeter=parallelogramPerimeter;whiteSpace=wrap;html=1;fillColor=#0050ef;fontColor=#ffffff;strokeColor=#001DBC;" vertex="1" parent="1">
          <mxGeometry x="389" y="2980" width="200" height="50" as="geometry" />
        </mxCell>
        <mxCell id="LEI7NK5Pn0Rt52Mgo6JD-79" value="หยุด" style="ellipse;whiteSpace=wrap;html=1;shape=ext;fillColor=#60a917;fontColor=#ffffff;strokeColor=#2D7600;" vertex="1" parent="1">
          <mxGeometry x="729" y="3270" width="150" height="40" as="geometry" />
        </mxCell>
        <mxCell id="LEI7NK5Pn0Rt52Mgo6JD-80" value="" style="endArrow=classic;html=1;exitX=0.5;exitY=1;entryX=0.5;entryY=0;" edge="1" parent="1" source="LEI7NK5Pn0Rt52Mgo6JD-56" target="LEI7NK5Pn0Rt52Mgo6JD-57">
          <mxGeometry width="50" height="50" relative="1" as="geometry">
            <mxPoint x="349" y="120" as="sourcePoint" />
            <mxPoint x="349" y="180" as="targetPoint" />
          </mxGeometry>
        </mxCell>
        <mxCell id="LEI7NK5Pn0Rt52Mgo6JD-81" value="" style="endArrow=classic;html=1;exitX=0.5;exitY=1;entryX=0.5;entryY=0;" edge="1" parent="1" source="LEI7NK5Pn0Rt52Mgo6JD-57" target="LEI7NK5Pn0Rt52Mgo6JD-58">
          <mxGeometry width="50" height="50" relative="1" as="geometry">
            <mxPoint x="354" y="240" as="sourcePoint" />
            <mxPoint x="354" y="330" as="targetPoint" />
          </mxGeometry>
        </mxCell>
        <mxCell id="LEI7NK5Pn0Rt52Mgo6JD-82" value="" style="endArrow=classic;html=1;exitX=0.5;exitY=1;entryX=0.5;entryY=0;" edge="1" parent="1" source="LEI7NK5Pn0Rt52Mgo6JD-58" target="LEI7NK5Pn0Rt52Mgo6JD-59">
          <mxGeometry width="50" height="50" relative="1" as="geometry">
            <mxPoint x="354" y="380" as="sourcePoint" />
            <mxPoint x="354" y="530" as="targetPoint" />
          </mxGeometry>
        </mxCell>
        <mxCell id="LEI7NK5Pn0Rt52Mgo6JD-83" value="&lt;b&gt;True&lt;/b&gt; (รับค่าสำเร็จ)" style="edgeStyle=orthogonalEdgeStyle;html=1;align=center;verticalAlign=top;labelBackgroundColor=#FFFFFF;" edge="1" parent="1" source="LEI7NK5Pn0Rt52Mgo6JD-59" target="LEI7NK5Pn0Rt52Mgo6JD-62">
          <mxGeometry x="-0.75" relative="1" as="geometry">
            <mxPoint x="354" y="620" as="sourcePoint" />
            <mxPoint x="354" y="750" as="targetPoint" />
          </mxGeometry>
        </mxCell>
        <mxCell id="LEI7NK5Pn0Rt52Mgo6JD-84" value="&lt;b&gt;False&lt;/b&gt; (รับค่าไม่สำเร็จ)" style="edgeStyle=orthogonalEdgeStyle;html=1;align=center;verticalAlign=middle;labelBackgroundColor=#FFFFFF;exitX=0;exitY=0.5;exitDx=0;exitDy=0;entryX=1;entryY=0.5;entryDx=0;entryDy=0;" edge="1" parent="1" source="LEI7NK5Pn0Rt52Mgo6JD-59" target="LEI7NK5Pn0Rt52Mgo6JD-60">
          <mxGeometry x="-0.1" y="-15" relative="1" as="geometry">
            <mxPoint x="429" y="575" as="sourcePoint" />
            <mxPoint x="-51" y="580" as="targetPoint" />
            <Array as="points" />
            <mxPoint as="offset" />
          </mxGeometry>
        </mxCell>
        <mxCell id="LEI7NK5Pn0Rt52Mgo6JD-85" value="" style="endArrow=classic;html=1;exitX=0.5;exitY=1;entryX=0.5;entryY=0;" edge="1" parent="1" source="LEI7NK5Pn0Rt52Mgo6JD-60" target="LEI7NK5Pn0Rt52Mgo6JD-61">
          <mxGeometry width="50" height="50" relative="1" as="geometry">
            <mxPoint x="629" y="605" as="sourcePoint" />
            <mxPoint x="629" y="650" as="targetPoint" />
          </mxGeometry>
        </mxCell>
        <mxCell id="LEI7NK5Pn0Rt52Mgo6JD-86" value="" style="endArrow=classic;html=1;exitX=0.5;exitY=1;exitDx=0;exitDy=0;entryX=0;entryY=0.25;entryDx=0;entryDy=0;" edge="1" parent="1" source="LEI7NK5Pn0Rt52Mgo6JD-61" target="LEI7NK5Pn0Rt52Mgo6JD-58">
          <mxGeometry width="50" height="50" relative="1" as="geometry">
            <mxPoint x="19" y="710" as="sourcePoint" />
            <mxPoint x="119" y="440" as="targetPoint" />
            <Array as="points">
              <mxPoint x="-1" y="710" />
              <mxPoint x="-141" y="710" />
              <mxPoint x="-141" y="346" />
              <mxPoint x="29" y="346" />
            </Array>
          </mxGeometry>
        </mxCell>
        <mxCell id="LEI7NK5Pn0Rt52Mgo6JD-87" value="&lt;b&gt;True&lt;/b&gt; (ออก)" style="edgeStyle=orthogonalEdgeStyle;html=1;exitX=1;exitY=0.5;entryX=0.5;entryY=0;align=center;verticalAlign=top;labelBackgroundColor=#FFFFFF;exitDx=0;exitDy=0;" edge="1" parent="1" source="LEI7NK5Pn0Rt52Mgo6JD-62" target="LEI7NK5Pn0Rt52Mgo6JD-63">
          <mxGeometry x="-0.75" relative="1" as="geometry">
            <mxPoint x="354" y="830" as="sourcePoint" />
            <mxPoint x="354" y="880" as="targetPoint" />
            <Array as="points">
              <mxPoint x="804" y="790" />
            </Array>
          </mxGeometry>
        </mxCell>
        <mxCell id="LEI7NK5Pn0Rt52Mgo6JD-88" value="&lt;b&gt;False&lt;/b&gt; ($ \ne -1 $)" style="edgeStyle=orthogonalEdgeStyle;html=1;exitX=0;exitY=0.5;entryX=0.5;entryY=0;align=center;verticalAlign=middle;labelBackgroundColor=#FFFFFF;" edge="1" parent="1" source="LEI7NK5Pn0Rt52Mgo6JD-62" target="LEI7NK5Pn0Rt52Mgo6JD-64">
          <mxGeometry relative="1" as="geometry">
            <mxPoint x="279" y="790" as="sourcePoint" />
            <mxPoint x="154" y="930" as="targetPoint" />
            <Array as="points">
              <mxPoint x="103" y="790" />
            </Array>
          </mxGeometry>
        </mxCell>
        <mxCell id="LEI7NK5Pn0Rt52Mgo6JD-89" value="" style="endArrow=classic;html=1;exitX=0.5;exitY=1;entryX=0.5;entryY=0;" edge="1" parent="1" source="LEI7NK5Pn0Rt52Mgo6JD-63" target="LEI7NK5Pn0Rt52Mgo6JD-79">
          <mxGeometry width="50" height="50" relative="1" as="geometry">
            <mxPoint x="354" y="930" as="sourcePoint" />
            <mxPoint x="354" y="980" as="targetPoint" />
            <Array as="points" />
          </mxGeometry>
        </mxCell>
        <mxCell id="LEI7NK5Pn0Rt52Mgo6JD-90" value="&lt;b&gt;True&lt;/b&gt; (เล่น)" style="edgeStyle=orthogonalEdgeStyle;html=1;exitX=0.5;exitY=1;entryX=0.5;entryY=0;align=center;verticalAlign=top;labelBackgroundColor=#FFFFFF;" edge="1" parent="1" source="LEI7NK5Pn0Rt52Mgo6JD-64" target="LEI7NK5Pn0Rt52Mgo6JD-66">
          <mxGeometry x="-0.75" relative="1" as="geometry">
            <mxPoint x="154" y="1010" as="sourcePoint" />
            <mxPoint x="154" y="1130" as="targetPoint" />
          </mxGeometry>
        </mxCell>
        <mxCell id="LEI7NK5Pn0Rt52Mgo6JD-91" value="&lt;b&gt;False&lt;/b&gt; (ป้อนไม่ถูก)" style="edgeStyle=orthogonalEdgeStyle;html=1;exitX=1;exitY=0.5;entryX=0.5;entryY=0;align=center;verticalAlign=middle;labelBackgroundColor=#FFFFFF;" edge="1" parent="1" source="LEI7NK5Pn0Rt52Mgo6JD-64" target="LEI7NK5Pn0Rt52Mgo6JD-65">
          <mxGeometry relative="1" as="geometry">
            <mxPoint x="229" y="970" as="sourcePoint" />
            <mxPoint x="369" y="1050" as="targetPoint" />
            <Array as="points">
              <mxPoint x="279" y="970" />
              <mxPoint x="369" y="970" />
            </Array>
          </mxGeometry>
        </mxCell>
        <mxCell id="LEI7NK5Pn0Rt52Mgo6JD-92" value="" style="endArrow=classic;html=1;exitX=0.5;exitY=1;entryX=0.75;entryY=1;entryDx=0;entryDy=0;" edge="1" parent="1" target="LEI7NK5Pn0Rt52Mgo6JD-58">
          <mxGeometry width="50" height="50" relative="1" as="geometry">
            <mxPoint x="373.76" y="1090" as="sourcePoint" />
            <mxPoint x="439" y="390" as="targetPoint" />
            <Array as="points">
              <mxPoint x="374" y="1120" />
              <mxPoint x="469" y="1120" />
              <mxPoint x="469" y="760" />
              <mxPoint x="469" y="410" />
            </Array>
          </mxGeometry>
        </mxCell>
        <mxCell id="LEI7NK5Pn0Rt52Mgo6JD-93" value="" style="endArrow=classic;html=1;exitX=0.5;exitY=1;entryX=0.5;entryY=0;" edge="1" parent="1" source="LEI7NK5Pn0Rt52Mgo6JD-66" target="LEI7NK5Pn0Rt52Mgo6JD-67">
          <mxGeometry width="50" height="50" relative="1" as="geometry">
            <mxPoint x="154" y="1210" as="sourcePoint" />
            <mxPoint x="154" y="1280" as="targetPoint" />
          </mxGeometry>
        </mxCell>
        <mxCell id="LEI7NK5Pn0Rt52Mgo6JD-94" value="" style="endArrow=classic;html=1;exitX=0.5;exitY=1;entryX=0.5;entryY=0;" edge="1" parent="1" source="LEI7NK5Pn0Rt52Mgo6JD-67" target="LEI7NK5Pn0Rt52Mgo6JD-68">
          <mxGeometry width="50" height="50" relative="1" as="geometry">
            <mxPoint x="154" y="1320" as="sourcePoint" />
            <mxPoint x="154" y="1430" as="targetPoint" />
          </mxGeometry>
        </mxCell>
        <mxCell id="LEI7NK5Pn0Rt52Mgo6JD-95" value="" style="endArrow=classic;html=1;exitX=0.5;exitY=1;entryX=0.5;entryY=0;" edge="1" parent="1" source="LEI7NK5Pn0Rt52Mgo6JD-68" target="LEI7NK5Pn0Rt52Mgo6JD-69">
          <mxGeometry width="50" height="50" relative="1" as="geometry">
            <mxPoint x="154" y="1480" as="sourcePoint" />
            <mxPoint x="154" y="1580" as="targetPoint" />
          </mxGeometry>
        </mxCell>
        <mxCell id="LEI7NK5Pn0Rt52Mgo6JD-96" value="&lt;b&gt;True&lt;/b&gt; (รับค่าสำเร็จ)" style="edgeStyle=orthogonalEdgeStyle;html=1;exitX=0.5;exitY=1;entryX=0.5;entryY=0;align=center;verticalAlign=top;labelBackgroundColor=#FFFFFF;" edge="1" parent="1" source="LEI7NK5Pn0Rt52Mgo6JD-69" target="LEI7NK5Pn0Rt52Mgo6JD-72">
          <mxGeometry x="-0.75" relative="1" as="geometry">
            <mxPoint x="154" y="1660" as="sourcePoint" />
            <mxPoint x="154" y="2030" as="targetPoint" />
          </mxGeometry>
        </mxCell>
        <mxCell id="LEI7NK5Pn0Rt52Mgo6JD-97" value="&lt;b&gt;False&lt;/b&gt; (รับค่าไม่สำเร็จ)" style="edgeStyle=orthogonalEdgeStyle;html=1;exitX=1;exitY=0.5;entryX=0;entryY=0.5;align=center;verticalAlign=middle;labelBackgroundColor=#FFFFFF;" edge="1" parent="1" source="LEI7NK5Pn0Rt52Mgo6JD-69" target="LEI7NK5Pn0Rt52Mgo6JD-70">
          <mxGeometry relative="1" as="geometry">
            <mxPoint x="229" y="1620" as="sourcePoint" />
            <mxPoint x="279" y="1755" as="targetPoint" />
            <Array as="points">
              <mxPoint x="279" y="1640" />
              <mxPoint x="279" y="1755" />
            </Array>
          </mxGeometry>
        </mxCell>
        <mxCell id="LEI7NK5Pn0Rt52Mgo6JD-98" value="" style="endArrow=classic;html=1;exitX=0.5;exitY=1;entryX=0.5;entryY=0;" edge="1" parent="1" source="LEI7NK5Pn0Rt52Mgo6JD-70" target="LEI7NK5Pn0Rt52Mgo6JD-71">
          <mxGeometry width="50" height="50" relative="1" as="geometry">
            <mxPoint x="404" y="1780" as="sourcePoint" />
            <mxPoint x="404" y="1830" as="targetPoint" />
          </mxGeometry>
        </mxCell>
        <mxCell id="LEI7NK5Pn0Rt52Mgo6JD-99" value="" style="endArrow=classic;html=1;exitX=0.5;exitY=1;entryX=1;entryY=0.5;exitDx=0;exitDy=0;" edge="1" parent="1" target="LEI7NK5Pn0Rt52Mgo6JD-68" source="LEI7NK5Pn0Rt52Mgo6JD-71">
          <mxGeometry width="50" height="50" relative="1" as="geometry">
            <mxPoint x="404" y="1830" as="sourcePoint" />
            <mxPoint x="404" y="1530" as="targetPoint" />
            <Array as="points">
              <mxPoint x="404" y="1920" />
              <mxPoint x="549" y="1920" />
              <mxPoint x="549" y="1690" />
              <mxPoint x="549" y="1460" />
            </Array>
          </mxGeometry>
        </mxCell>
        <mxCell id="LEI7NK5Pn0Rt52Mgo6JD-100" value="&lt;b&gt;True&lt;/b&gt; (ทายถูก)" style="edgeStyle=orthogonalEdgeStyle;html=1;exitX=1;exitY=0.5;entryX=0.5;entryY=0;align=center;verticalAlign=middle;labelBackgroundColor=#FFFFFF;" edge="1" parent="1" source="LEI7NK5Pn0Rt52Mgo6JD-72" target="LEI7NK5Pn0Rt52Mgo6JD-73">
          <mxGeometry x="-0.75" relative="1" as="geometry">
            <mxPoint x="229" y="2070" as="sourcePoint" />
            <mxPoint x="379" y="2180" as="targetPoint" />
            <Array as="points">
              <mxPoint x="379" y="2080" />
            </Array>
          </mxGeometry>
        </mxCell>
        <mxCell id="LEI7NK5Pn0Rt52Mgo6JD-101" value="&lt;b&gt;จบเกมรอบนี้&lt;/b&gt;" style="edgeStyle=orthogonalEdgeStyle;html=1;exitX=0.5;exitY=1;entryX=1;entryY=0.75;align=center;verticalAlign=bottom;labelBackgroundColor=#FFFFFF;entryDx=0;entryDy=0;" edge="1" parent="1" source="LEI7NK5Pn0Rt52Mgo6JD-73" target="LEI7NK5Pn0Rt52Mgo6JD-58">
          <mxGeometry relative="1" as="geometry">
            <mxPoint x="379" y="2240" as="sourcePoint" />
            <mxPoint x="379" y="2290" as="targetPoint" />
            <Array as="points">
              <mxPoint x="379" y="2280" />
              <mxPoint x="909" y="2280" />
              <mxPoint x="909" y="364" />
            </Array>
          </mxGeometry>
        </mxCell>
        <mxCell id="LEI7NK5Pn0Rt52Mgo6JD-102" value="&lt;b&gt;False&lt;/b&gt; (ทายผิด)" style="edgeStyle=orthogonalEdgeStyle;html=1;exitX=0.5;exitY=1;entryX=0.5;entryY=0;align=center;verticalAlign=top;labelBackgroundColor=#FFFFFF;" edge="1" parent="1" source="LEI7NK5Pn0Rt52Mgo6JD-72" target="LEI7NK5Pn0Rt52Mgo6JD-74">
          <mxGeometry relative="1" as="geometry">
            <mxPoint x="154" y="2110" as="sourcePoint" />
            <mxPoint x="154" y="2330" as="targetPoint" />
          </mxGeometry>
        </mxCell>
        <mxCell id="LEI7NK5Pn0Rt52Mgo6JD-103" value="&lt;b&gt;True&lt;/b&gt; ($ &lt; answer $)" style="edgeStyle=orthogonalEdgeStyle;html=1;exitX=0;exitY=0.5;entryX=0.5;entryY=0;align=center;verticalAlign=middle;labelBackgroundColor=#FFFFFF;" edge="1" parent="1" source="LEI7NK5Pn0Rt52Mgo6JD-74" target="LEI7NK5Pn0Rt52Mgo6JD-75">
          <mxGeometry relative="1" as="geometry">
            <mxPoint x="79" y="2370" as="sourcePoint" />
            <mxPoint x="79" y="2530" as="targetPoint" />
          </mxGeometry>
        </mxCell>
        <mxCell id="LEI7NK5Pn0Rt52Mgo6JD-104" value="&lt;b&gt;False&lt;/b&gt; ($ \geq answer $)" style="edgeStyle=orthogonalEdgeStyle;html=1;exitX=1;exitY=0.5;entryX=0.5;entryY=0;align=center;verticalAlign=middle;labelBackgroundColor=#FFFFFF;" edge="1" parent="1" source="LEI7NK5Pn0Rt52Mgo6JD-74" target="LEI7NK5Pn0Rt52Mgo6JD-76">
          <mxGeometry relative="1" as="geometry">
            <mxPoint x="229" y="2370" as="sourcePoint" />
            <mxPoint x="279" y="2530" as="targetPoint" />
            <Array as="points">
              <mxPoint x="203" y="2370" />
            </Array>
          </mxGeometry>
        </mxCell>
        <mxCell id="LEI7NK5Pn0Rt52Mgo6JD-105" value="" style="endArrow=classic;html=1;exitX=0.5;exitY=1;entryX=0.5;entryY=0;" edge="1" parent="1" source="LEI7NK5Pn0Rt52Mgo6JD-75" target="LEI7NK5Pn0Rt52Mgo6JD-77">
          <mxGeometry width="50" height="50" relative="1" as="geometry">
            <mxPoint x="3" y="2620" as="sourcePoint" />
            <mxPoint x="78" y="2790" as="targetPoint" />
          </mxGeometry>
        </mxCell>
        <mxCell id="LEI7NK5Pn0Rt52Mgo6JD-106" value="" style="endArrow=classic;html=1;exitX=0.5;exitY=1;entryX=0.5;entryY=0;" edge="1" parent="1" source="LEI7NK5Pn0Rt52Mgo6JD-76" target="LEI7NK5Pn0Rt52Mgo6JD-77">
          <mxGeometry width="50" height="50" relative="1" as="geometry">
            <mxPoint x="203" y="2620" as="sourcePoint" />
            <mxPoint x="78" y="2790" as="targetPoint" />
          </mxGeometry>
        </mxCell>
        <mxCell id="LEI7NK5Pn0Rt52Mgo6JD-107" value="&lt;b&gt;True&lt;/b&gt; (หมดแต้ม)" style="edgeStyle=orthogonalEdgeStyle;html=1;exitX=1;exitY=0.5;entryX=0.5;entryY=0;align=center;verticalAlign=middle;labelBackgroundColor=#FFFFFF;" edge="1" parent="1" source="LEI7NK5Pn0Rt52Mgo6JD-77" target="LEI7NK5Pn0Rt52Mgo6JD-78">
          <mxGeometry x="-0.5184" relative="1" as="geometry">
            <mxPoint x="229" y="2820" as="sourcePoint" />
            <mxPoint x="379" y="2980" as="targetPoint" />
            <Array as="points">
              <mxPoint x="489" y="2830" />
            </Array>
            <mxPoint as="offset" />
          </mxGeometry>
        </mxCell>
        <mxCell id="LEI7NK5Pn0Rt52Mgo6JD-108" value="&lt;b&gt;จบเกมรอบนี้&lt;/b&gt;" style="edgeStyle=orthogonalEdgeStyle;html=1;exitX=0.5;exitY=1;entryX=1;entryY=0.5;align=center;verticalAlign=bottom;labelBackgroundColor=#FFFFFF;" edge="1" parent="1" source="LEI7NK5Pn0Rt52Mgo6JD-78" target="LEI7NK5Pn0Rt52Mgo6JD-58">
          <mxGeometry relative="1" as="geometry">
            <mxPoint x="379" y="3030" as="sourcePoint" />
            <mxPoint x="379" y="3080" as="targetPoint" />
            <Array as="points">
              <mxPoint x="489" y="3080" />
              <mxPoint x="969" y="3080" />
              <mxPoint x="969" y="355" />
            </Array>
          </mxGeometry>
        </mxCell>
        <mxCell id="LEI7NK5Pn0Rt52Mgo6JD-109" value="&lt;b&gt;False&lt;/b&gt; (เล่นต่อ)" style="edgeStyle=orthogonalEdgeStyle;html=1;exitX=0;exitY=0.5;entryX=0;entryY=0.5;align=center;verticalAlign=middle;labelBackgroundColor=#FFFFFF;entryDx=0;entryDy=0;" edge="1" parent="1" source="LEI7NK5Pn0Rt52Mgo6JD-77" target="LEI7NK5Pn0Rt52Mgo6JD-68">
          <mxGeometry relative="1" as="geometry">
            <mxPoint x="79" y="2820" as="sourcePoint" />
            <mxPoint x="154" y="1480" as="targetPoint" />
            <Array as="points">
              <mxPoint x="-141" y="2830" />
              <mxPoint x="-141" y="1455" />
            </Array>
          </mxGeometry>
        </mxCell>
      </root>
    </mxGraphModel>
  </diagram>
</mxfile>
